<?xml version="1.0" encoding="UTF-8"?>
<svg xmlns="http://www.w3.org/2000/svg" version="1.1" viewBox="0 0 267.4 39.8">
  <!-- Generator: Adobe Illustrator 30.1.0, SVG Export Plug-In . SVG Version: 2.1.1 Build 136)  -->
  <defs>
    <style>
      .st0 {
        fill: #fff;
        stroke: #000;
      }

      .st0, .st1 {
        stroke-miterlimit: 10;
      }

      .st1 {
        stroke: #070707;
      }
    </style>
  </defs>
  <g id="Letters">
    <g>
      <path d="M223.3,12.9c1.2,0,2.2.2,3,.5.8.3,1.5.8,2,1.3.6.6,1,1.4,1.3,2.4s.4,2.3.4,3.9v12.8c0,1.3.3,2.3.8,2.7.6.5,1.5.7,2.8.7v1c-.5,0-1.4,0-2.5-.1-1.1,0-2.2,0-3.3,0s-2.1,0-3.1,0c-1,0-1.8,0-2.3.1v-1c1.2,0,2-.2,2.4-.7.5-.5.7-1.4.7-2.7v-13.9c0-1,0-1.9-.2-2.7-.2-.8-.5-1.5-1.1-2-.6-.5-1.4-.8-2.6-.8s-2.5.4-3.5,1.2-1.8,1.8-2.4,3.1c-.6,1.3-.8,2.8-.8,4.4v10.7c0,1.3.2,2.3.7,2.7.5.5,1.3.7,2.4.7v1c-.5,0-1.3,0-2.3-.1-1,0-2,0-3.1,0s-2.1,0-3.3,0c-1.1,0-2,0-2.5.1v-1c1.3,0,2.2-.2,2.8-.7.6-.5.8-1.4.8-2.7v-15c0-1.4-.3-2.5-.8-3.2-.5-.7-1.5-1-2.9-1v-1c1,0,2,.1,3,.1s1.8,0,2.7-.2c.8-.1,1.6-.3,2.3-.5v5.7c.8-2.2,2-3.7,3.5-4.5,1.5-.8,3-1.3,4.7-1.3Z"/>
      <path d="M240.8,38.7c-1.3,0-2.4-.2-3.4-.7-1-.5-1.7-1.2-2.2-2.1-.5-.9-.7-1.9-.7-3.1s.3-2.6,1-3.5c.7-.9,1.5-1.6,2.5-2.2,1-.5,2.1-1,3.2-1.4,1.1-.4,2.2-.7,3.2-1.1,1-.3,1.9-.7,2.5-1.2.7-.4,1-1,1-1.8v-3c0-1.3-.2-2.4-.6-3.1-.4-.7-.9-1.2-1.6-1.4-.7-.2-1.4-.4-2.3-.4s-1.7.1-2.6.3c-.9.2-1.6.7-2.2,1.4.6.1,1.1.4,1.6,1,.4.5.7,1.2.7,2s-.3,1.4-.8,1.9c-.5.5-1.2.7-2,.7s-1.6-.3-2-.9c-.4-.6-.6-1.3-.6-2s.2-1.5.6-2c.4-.5.9-1,1.6-1.4.7-.5,1.7-1,2.9-1.3,1.2-.4,2.5-.6,4-.6s2.4.2,3.4.5c.9.3,1.7.7,2.3,1.3.8.8,1.4,1.7,1.6,2.8.3,1.1.4,2.4.4,4v13.3c0,.8.1,1.4.4,1.7.2.4.6.5,1.1.5s.7,0,1-.2c.3-.2.7-.4,1.2-.8l.5.8c-.7.5-1.3.9-1.9,1.3-.6.3-1.4.5-2.4.5s-1.7-.2-2.3-.5c-.6-.3-1.1-.8-1.4-1.4s-.5-1.4-.5-2.4c-.9,1.4-1.9,2.5-3.1,3.2-1.2.7-2.6,1.1-4.1,1.1ZM242.5,36.7c1.1,0,2-.3,3-.9.9-.6,1.7-1.5,2.5-2.7v-9.4c-.4.5-.9,1-1.7,1.4s-1.5.7-2.4,1.1c-.9.4-1.7.8-2.5,1.3-.8.5-1.4,1.1-1.9,1.9-.5.8-.8,1.8-.8,3.1s.3,2.3,1,3.1c.7.8,1.6,1.2,2.8,1.2Z"/>
      <path d="M263.5.7v33.2c0,1.3.3,2.3.8,2.7s1.5.7,2.8.7v1c-.5,0-1.4,0-2.5-.1-1.1,0-2.2,0-3.3,0s-2.2,0-3.3,0c-1.1,0-2,0-2.5.1v-1c1.3,0,2.2-.2,2.8-.7s.8-1.4.8-2.7V6.5c0-1.4-.3-2.5-.8-3.2-.5-.7-1.5-1-2.9-1v-1c1,0,2,.1,3,.1s1.8,0,2.7-.2c.8-.1,1.6-.3,2.3-.5Z"/>
    </g>
    <g>
      <path d="M121.5,5.2c-.1,1.2-.2,2.4-.3,3.5,0,1.1,0,2,0,2.6s0,1.5,0,2.2c0,.7,0,1.3,0,1.8h-1.1c-.2-2.2-.5-4-.9-5.3s-1.1-2.2-2-2.8c-1-.6-2.4-.9-4.5-.9h-3c-1.1,0-1.9,0-2.5.3-.6.2-.9.5-1.1,1.1-.2.6-.3,1.4-.3,2.6v23.8c0,1.2.1,2,.4,2.6.2.6.7,1,1.4,1.2.7.2,1.7.3,3.1.4v1c-.8,0-1.9-.1-3.2-.1-1.3,0-2.6,0-3.9,0s-2.4,0-3.5,0c-1.1,0-2,0-2.6.1v-1c1.1,0,1.9-.2,2.5-.4.6-.2.9-.6,1.1-1.2.2-.6.3-1.4.3-2.6V10.2c0-1.2,0-2.1-.3-2.6-.2-.6-.6-.9-1.1-1.2-.6-.2-1.4-.3-2.5-.4v-1c1.2,0,2.4,0,3.7,0,1.3,0,2.6,0,3.9,0s2.5,0,3.6,0h2.7c1.5,0,3.1,0,5,0s3.5,0,5-.1ZM114.1,22.1v1h-9.6v-1h9.6ZM115,15.7c-.1,1.8-.2,3.2-.2,4.2,0,1,0,1.8,0,2.6s0,1.7,0,2.6c0,1,.1,2.4.2,4.2h-1.1c-.1-1-.3-2-.5-3-.2-1-.6-1.8-1.2-2.4-.6-.6-1.6-.9-3-.9v-1c1.1,0,1.9-.2,2.4-.6.6-.4,1-1,1.2-1.7s.4-1.4.5-2.1.2-1.4.3-1.9h1.1Z"/>
      <path d="M130.3,13.9v20.8c0,1.3.3,2.3.8,2.7.6.5,1.5.7,2.8.7v1c-.5,0-1.4,0-2.5-.1-1.1,0-2.2,0-3.3,0s-2.2,0-3.3,0c-1.1,0-2,0-2.5.1v-1c1.3,0,2.2-.2,2.8-.7.6-.5.8-1.4.8-2.7v-15c0-1.4-.3-2.5-.8-3.2-.5-.7-1.5-1-2.9-1v-1c1,0,2,.1,3,.1s1.8,0,2.7-.2c.8-.1,1.6-.3,2.3-.5ZM127.8,2.4c.8,0,1.6.3,2.2.9.6.6.9,1.3.9,2.2s-.3,1.6-.9,2.2c-.6.6-1.3.9-2.2.9s-1.6-.3-2.2-.9c-.6-.6-.9-1.3-.9-2.2s.3-1.6.9-2.2,1.3-.9,2.2-.9Z"/>
      <path d="M146.5,13.7c1,0,2,.1,3,.4,1,.3,1.8.6,2.6,1.2.7.5,1.3,1,1.7,1.7s.6,1.3.6,2-.2,1.5-.7,2c-.5.5-1.1.7-1.8.7s-1.3-.2-1.8-.6c-.5-.4-.8-1-.8-1.8s.2-1.3.6-1.8c.4-.4.9-.7,1.4-.9-.3-.6-.9-1.1-1.7-1.4-.8-.4-1.7-.6-2.6-.6s-1.6.2-2.4.6c-.8.4-1.5,1-2.2,1.9-.7.9-1.2,2.1-1.6,3.6-.4,1.5-.6,3.4-.6,5.7s.3,5.1,1,6.7c.6,1.7,1.5,2.9,2.5,3.6,1,.7,2.2,1.1,3.4,1.1s1.7-.2,2.5-.5c.9-.3,1.7-.8,2.4-1.6.8-.7,1.4-1.7,2-2.9l.9.3c-.3,1-.8,2.1-1.6,3.1-.7,1-1.7,1.9-2.9,2.6-1.2.7-2.6,1-4.4,1s-3.8-.5-5.4-1.5c-1.6-1-2.9-2.5-3.8-4.4-.9-1.9-1.4-4.2-1.4-6.8s.5-4.9,1.4-6.9c.9-2,2.3-3.6,4-4.7,1.7-1.1,3.6-1.7,5.8-1.7Z"/>
      <path d="M163.6,6.5v8h7.1v1h-7.1v18.6c0,1.5.3,2.6.8,3.2.5.6,1.3.9,2.3.9s1.8-.4,2.5-1.2c.7-.8,1.3-2.1,1.8-4l1,.2c-.3,1.9-1,3.4-1.9,4.7-.9,1.3-2.4,1.9-4.3,1.9s-2-.1-2.7-.4-1.3-.7-1.9-1.2c-.7-.7-1.2-1.6-1.5-2.6-.3-1-.4-2.4-.4-4.1V15.4h-4.6v-1h4.6v-7.3c.8,0,1.6,0,2.3-.2.7,0,1.4-.3,2-.5Z"/>
      <path d="M178.9,13.9v20.8c0,1.3.3,2.3.8,2.7.6.5,1.5.7,2.8.7v1c-.5,0-1.4,0-2.5-.1-1.1,0-2.2,0-3.3,0s-2.2,0-3.3,0c-1.1,0-2,0-2.5.1v-1c1.3,0,2.2-.2,2.8-.7.6-.5.8-1.4.8-2.7v-15c0-1.4-.3-2.5-.8-3.2-.5-.7-1.5-1-2.9-1v-1c1,0,2,.1,3,.1s1.8,0,2.7-.2c.8-.1,1.6-.3,2.3-.5ZM176.4,2.4c.8,0,1.6.3,2.2.9.6.6.9,1.3.9,2.2s-.3,1.6-.9,2.2c-.6.6-1.3.9-2.2.9s-1.6-.3-2.2-.9c-.6-.6-.9-1.3-.9-2.2s.3-1.6.9-2.2,1.3-.9,2.2-.9Z"/>
    </g>
    <g>
      <path d="M16.7,3.9l11.7,30.2c.5,1.2,1,2,1.6,2.4.6.4,1.2.6,1.7.6v1c-.6,0-1.4-.1-2.4-.1-.9,0-1.9,0-2.8,0s-2.4,0-3.5,0c-1.1,0-2,0-2.6.1v-1c1.6,0,2.7-.3,3.1-.8.4-.5.4-1.6-.3-3.2L14.3,9.3l.8-.6L6.7,30.4c-.5,1.3-.8,2.4-.9,3.2,0,.9,0,1.6.3,2.1.3.5.7.9,1.4,1.1.7.2,1.5.4,2.5.4v1c-.9,0-1.8-.1-2.8-.1-1,0-1.9,0-2.7,0s-1.5,0-2,0c-.6,0-1.1,0-1.6.1v-1c.6-.2,1.3-.5,2-1.1.7-.6,1.3-1.6,1.8-3L15.9,3.9h.8ZM22.5,24.3v1h-14.3l.5-1h13.8Z"/>
      <path d="M51.2,12.9v20.1c0,1.4.3,2.5.8,3.2.5.7,1.5,1,2.9,1v1c-1,0-2-.1-3-.1s-1.8,0-2.7.1c-.8,0-1.6.3-2.3.5v-5.7c-.8,2.1-1.9,3.6-3.4,4.4-1.5.9-3,1.3-4.5,1.3s-2.1-.2-2.9-.5c-.8-.3-1.5-.8-2.1-1.3-.6-.6-1-1.5-1.2-2.5-.2-1-.3-2.3-.3-3.8v-12c0-1.4-.3-2.5-.8-3.2-.5-.7-1.5-1-2.9-1v-1c1,0,2,.1,3,.1s1.8,0,2.7-.2c.8-.1,1.6-.3,2.3-.5v18.9c0,1,0,1.9.2,2.7.1.8.4,1.5,1,2,.5.5,1.3.8,2.5.8s2.4-.4,3.3-1.2c1-.8,1.7-1.8,2.3-3.1.6-1.3.8-2.8.8-4.4v-9.9c0-1.4-.3-2.5-.8-3.2-.5-.7-1.5-1-2.9-1v-1c1,0,2,.1,3,.1s1.8,0,2.7-.2c.8-.1,1.6-.3,2.3-.5Z"/>
      <path d="M63.1,5.5v8h7.1v1h-7.1v18.6c0,1.5.3,2.6.8,3.2.5.6,1.3.9,2.3.9s1.8-.4,2.5-1.2c.7-.8,1.3-2.1,1.8-4l1,.2c-.3,1.9-1,3.4-1.9,4.7-.9,1.3-2.4,1.9-4.3,1.9s-2-.1-2.7-.4c-.7-.3-1.3-.7-1.9-1.2-.7-.7-1.2-1.6-1.5-2.6-.3-1-.4-2.4-.4-4.1V14.4h-4.6v-1h4.6v-7.3c.8,0,1.6,0,2.3-.2.7,0,1.4-.3,2-.5Z"/>
    </g>
  </g>
  <g id="right">
    <g>
      <rect class="st1" x="186.3" y="16.6" width="17.1" height="19" transform="translate(75.5 -130.2) rotate(45)"/>
      <rect class="st0" x="189.6" y="16.5" width="10.4" height="19" transform="translate(75.5 -130.1) rotate(45)"/>
    </g>
  </g>
  <g id="left">
    <g>
      <rect class="st1" x="76.4" y="21.9" width="14.5" height="16.2"/>
      <rect class="st0" x="79.2" y="21.9" width="8.9" height="16.2"/>
    </g>
  </g>
</svg>